<svg width="12" height="11" viewBox="0 0 12 11" fill="none" xmlns="http://www.w3.org/2000/svg">
<path d="M9.75 0.6875H3.46875C3.41719 0.6875 3.375 0.726172 3.375 0.773438V1.375C3.375 1.42227 3.41719 1.46094 3.46875 1.46094H9.28125V8.85156C9.28125 8.89883 9.32344 8.9375 9.375 8.9375H10.0312C10.0828 8.9375 10.125 8.89883 10.125 8.85156V1.03125C10.125 0.841113 9.95742 0.6875 9.75 0.6875ZM8.25 2.0625H2.25C2.04258 2.0625 1.875 2.21611 1.875 2.40625V8.10713C1.875 8.19844 1.91484 8.28545 1.98516 8.3499L4.01602 10.2115C4.0418 10.2352 4.07109 10.2545 4.10273 10.2706V10.291H4.15195C4.19297 10.305 4.23633 10.3125 4.28086 10.3125H8.25C8.45742 10.3125 8.625 10.1589 8.625 9.96875V2.40625C8.625 2.21611 8.45742 2.0625 8.25 2.0625ZM4.10156 9.19746L3.09258 8.27148H4.10156V9.19746ZM7.78125 9.53906H4.85156V8.01367C4.85156 7.77627 4.6418 7.58398 4.38281 7.58398H2.71875V2.83594H7.78125V9.53906Z" fill="#484848"/>
</svg>
